<?xml version="1.0" encoding="utf-8"?>
<!DOCTYPE svg PUBLIC "-//W3C//DTD SVG 1.1//EN" "http://www.w3.org/Graphics/SVG/1.1/DTD/svg11.dtd">
<svg style="width:308px;height:308px;" version="1.1" id="图形" xmlns="http://www.w3.org/2000/svg" xmlns:xlink="http://www.w3.org/1999/xlink" x="0px" y="0px" width="1024px" height="1024px" viewBox="0 0 1024 1024" enable-background="new 0 0 1024 1024" xml:space="preserve">
  <path class="svgpath" data-index="path_0" fill="#272636" d="M516.513292 964.721919c-249.591545 0-452.653357-203.061812-452.653357-452.64824 0-249.591545 203.061812-452.652334 452.653357-452.652334 249.584382 0 452.645171 203.061812 452.645171 452.652334C969.158463 761.660106 766.097674 964.721919 516.513292 964.721919L516.513292 964.721919zM516.513292 98.784864c-227.891314 0-413.289837 185.40057-413.289837 413.288814 0 227.885174 185.399547 413.289837 413.289837 413.289837 227.883127 0 413.287791-185.404664 413.287791-413.289837C929.801083 284.184411 744.396419 98.784864 516.513292 98.784864L516.513292 98.784864z" />
<path class="svgpath" data-index="path_1" fill="#272636" d="M586.055135 720.258161l-34.771945-69.544913 177.344081 0c17.385972 0 31.296797-13.909801 31.296797-31.29475L759.924067 334.275249c0-17.384949-13.910824-31.29475-31.296797-31.29475L304.39215 302.980499c-17.386996 0-31.296797 13.909801-31.296797 31.29475l0 285.143249c0 17.384949 13.909801 31.29475 31.296797 31.29475l177.342034 0-34.772968 69.544913L238.322385 720.258161l0 34.776038 556.373627 0 0-34.776038L586.055135 720.258161 586.055135 720.258161zM339.165118 615.939257c-17.386996 0-31.296797-13.906731-31.296797-31.296797L307.868321 369.051287c0-17.388019 13.909801-31.29782 31.296797-31.29782l354.687138 0c17.385972 0 31.296797 13.909801 31.296797 31.29782l0 215.592196c0 17.390066-13.910824 31.296797-31.296797 31.296797L339.165118 615.94028 339.165118 615.939257zM339.165118 615.939257" />

</svg>
